Coordinates
version=1
nRows=10
nColumns=22
inDegrees=yes

Units are S.I. units (second, meters, Newtons, ...)
If the header above contains a line with 'inDegrees', this indicates whether rotational values are in degrees (yes) or radians (no).

endheader
time	pelvis_tilt	pelvis_list	pelvis_rotation	pelvis_tx	pelvis_ty	pelvis_tz	hip_flexion_r	hip_adduction_r	hip_rotation_r	knee_angle_r	ankle_angle_r	subtalar_angle_r	hip_flexion_l	hip_adduction_l	hip_rotation_l	knee_angle_l	ankle_angle_l	subtalar_angle_l	lumbar_extension	lumbar_bending	lumbar_rotation
      0.01000000	     -2.54093302	     -3.31570815	     -1.83560988	     -1.14643338	      0.95470024	      0.36423666	      9.79860467	      2.95163930	     -4.90514607	    -20.67351010	     13.14165369	     -0.64254839	     10.65132708	     -5.30565879	     -7.79090039	    -24.61839612	     13.45316128	     -5.64174424	     -4.93040049	      1.24750599	     -0.20464966
      0.02000000	     -2.54407285	     -3.32758393	     -1.84188272	     -1.14640947	      0.95467554	      0.36423727	      9.80123726	      2.96529139	     -4.89538376	    -20.67638781	     13.14865313	     -0.63120172	     10.64729794	     -5.31949485	     -7.81550630	    -24.60716293	     13.47799727	     -5.65715264	     -4.93557128	      1.26080567	     -0.23481188
      0.03000000	     -2.54784980	     -3.33114021	     -1.84890801	     -1.14640316	      0.95465800	      0.36423292	      9.80504579	      2.96901195	     -4.89576032	    -20.67424019	     13.14941006	     -0.62951088	     10.64893130	     -5.32022680	     -7.81918972	    -24.60450935	     13.48391123	     -5.65981483	     -4.94551236	      1.26080440	     -0.23901957
      0.04000000	     -2.54234682	     -3.35094161	     -1.86940599	     -1.14636590	      0.95463842	      0.36425563	      9.80337644	      2.99288780	     -4.87707844	    -20.68674748	     13.15299082	     -0.60561339	     10.63859970	     -5.35005266	     -7.86950054	    -24.60980520	     13.55800516	     -5.69320152	     -4.96167704	      1.28182609	     -0.25143877
      0.05000000	     -2.54641545	     -3.35321166	     -1.87994177	     -1.14635118	      0.95462807	      0.36425959	      9.80776246	      2.99570529	     -4.87737927	    -20.68563495	     13.15315062	     -0.60448460	     10.63902312	     -5.35081963	     -7.87050483	    -24.60719572	     13.55906922	     -5.69383422	     -4.97125770	      1.28119759	     -0.25809808
      0.06000000	     -2.54503421	     -3.35913722	     -1.89569839	     -1.14632580	      0.95461812	      0.36427086	      9.81641679	      3.00285055	     -4.86661533	    -20.70691841	     13.15119489	     -0.59833183	     10.63107607	     -5.35914019	     -7.88665013	    -24.60456796	     13.56915817	     -5.69819477	     -4.98412766	      1.28828835	     -0.28716248
      0.07000000	     -2.54897462	     -3.36046408	     -1.90619335	     -1.14631519	      0.95460879	      0.36428389	      9.82084854	      3.00510783	     -4.86789566	    -20.70512056	     13.15129881	     -0.59725616	     10.63296934	     -5.36074134	     -7.88776651	    -24.60446025	     13.57077636	     -5.69883745	     -4.99500950	      1.28560437	     -0.29180983
      0.08000000	     -2.54474514	     -3.36445914	     -1.92400209	     -1.14630688	      0.95459985	      0.36430267	      9.83162541	      3.00953503	     -4.86059621	    -20.73264980	     13.14758216	     -0.58940284	     10.63235138	     -5.36953196	     -7.90677593	    -24.62042527	     13.58056262	     -5.70254443	     -5.01397064	      1.28960578	     -0.31208258
      0.09000000	     -2.54809667	     -3.36547055	     -1.93456877	     -1.14629588	      0.95459301	      0.36432223	      9.83629287	      3.01140412	     -4.86247130	    -20.73180151	     13.14758522	     -0.58817274	     10.63497196	     -5.37192650	     -7.90735041	    -24.62199747	     13.58145422	     -5.70285640	     -5.02386303	      1.28670291	     -0.31537544
      0.10000000	     -2.54405373	     -3.37052674	     -1.94901060	     -1.14631288	      0.95457924	      0.36434418	      9.85434574	      3.01658059	     -4.85874438	    -20.76868197	     13.14304988	     -0.57727593	     10.64540115	     -5.38352128	     -7.92533934	    -24.65228628	     13.58665361	     -5.70448511	     -5.04623868	      1.29056530	     -0.32388549
